<svg xmlns="http://www.w3.org/2000/svg" viewBox="0 0 512 512" role="img" aria-label="MYPRO Tennis">
  <defs>
    <linearGradient id="bg" x1="72" y1="34" x2="438" y2="480" gradientUnits="userSpaceOnUse">
      <stop offset="0" stop-color="#082b34"/>
      <stop offset="0.48" stop-color="#07111f"/>
      <stop offset="1" stop-color="#063926"/>
    </linearGradient>
    <linearGradient id="shield" x1="132" y1="90" x2="388" y2="420" gradientUnits="userSpaceOnUse">
      <stop offset="0" stop-color="#0d2c3d"/>
      <stop offset="1" stop-color="#071525"/>
    </linearGradient>
    <linearGradient id="racket" x1="157" y1="122" x2="359" y2="380" gradientUnits="userSpaceOnUse">
      <stop offset="0" stop-color="#ecfeff"/>
      <stop offset="0.55" stop-color="#5eead4"/>
      <stop offset="1" stop-color="#20c47a"/>
    </linearGradient>
    <linearGradient id="ball" x1="219" y1="202" x2="303" y2="289" gradientUnits="userSpaceOnUse">
      <stop offset="0" stop-color="#faff86"/>
      <stop offset="1" stop-color="#b8f52e"/>
    </linearGradient>
    <filter id="glow" x="-35%" y="-35%" width="170%" height="170%">
      <feGaussianBlur stdDeviation="11" result="blur"/>
      <feColorMatrix in="blur" type="matrix" values="0 0 0 0 0.125 0 0 0 0 0.768 0 0 0 0 0.478 0 0 0 0.62 0"/>
      <feBlend in="SourceGraphic" mode="screen"/>
    </filter>
  </defs>

  <rect width="512" height="512" rx="108" fill="url(#bg)"/>
  <path d="M92 134 256 60l164 74v153c0 89-64 135-164 164C156 422 92 376 92 287V134Z" fill="url(#shield)" stroke="#5eead4" stroke-width="10"/>
  <path d="M128 158 256 101l128 57v122c0 67-45 103-128 128-83-25-128-61-128-128V158Z" fill="#081525" opacity="0.94"/>

  <g filter="url(#glow)">
    <g transform="rotate(-27 256 256)">
      <ellipse cx="226" cy="181" rx="73" ry="104" fill="none" stroke="url(#racket)" stroke-width="23"/>
      <ellipse cx="226" cy="181" rx="49" ry="77" fill="#092235" stroke="#dffcff" stroke-width="5" opacity="0.95"/>
      <path d="M177 135h98M169 168h114M172 202h108M188 112v139M226 101v159M263 113v137" stroke="#5eead4" stroke-width="5" stroke-linecap="round" opacity="0.9"/>
      <path d="M264 267 326 388" stroke="#ecfeff" stroke-width="25" stroke-linecap="round"/>
      <path d="M264 267 326 388" stroke="#20c47a" stroke-width="13" stroke-linecap="round"/>
      <path d="M306 344h57" stroke="#ecfeff" stroke-width="22" stroke-linecap="round"/>
      <path d="M306 344h57" stroke="#0f766e" stroke-width="10" stroke-linecap="round"/>
    </g>

    <circle cx="285" cy="239" r="45" fill="url(#ball)" stroke="#ecfeff" stroke-width="7"/>
    <path d="M252 211c27 16 43 39 45 72" fill="none" stroke="#0f766e" stroke-width="8" stroke-linecap="round"/>
    <path d="M319 204c-28 17-45 42-49 73" fill="none" stroke="#0f766e" stroke-width="8" stroke-linecap="round"/>
  </g>

  <path d="M151 378h210" stroke="#5eead4" stroke-width="13" stroke-linecap="round"/>
  <path d="M187 402h138" stroke="#f8fafc" stroke-width="8" stroke-linecap="round" opacity="0.9"/>
  <text x="256" y="456" text-anchor="middle" font-family="Inter, Arial, sans-serif" font-size="38" font-weight="900" letter-spacing="8" fill="#ffffff">MYPRO</text>
</svg>
